<?xml version="1.0" encoding="UTF-8" standalone="no"?>
<!-- Created with Inkscape (http://www.inkscape.org/) -->

<svg
   xmlns:dc="http://purl.org/dc/elements/1.1/"
   xmlns:cc="http://creativecommons.org/ns#"
   xmlns:rdf="http://www.w3.org/1999/02/22-rdf-syntax-ns#"
   xmlns:svg="http://www.w3.org/2000/svg"
   xmlns="http://www.w3.org/2000/svg"
   xmlns:xlink="http://www.w3.org/1999/xlink"
   xmlns:sodipodi="http://sodipodi.sourceforge.net/DTD/sodipodi-0.dtd"
   xmlns:inkscape="http://www.inkscape.org/namespaces/inkscape"
   width="210mm"
   height="297mm"
   viewBox="0 0 210 297"
   version="1.1"
   id="svg8"
   sodipodi:docname="logo_space-d.svg"
   inkscape:export-filename="/media/ARQUIVOS/alaelson/Dropbox/workspace/simulator/misc/logo_space-d.png"
   inkscape:export-xdpi="96"
   inkscape:export-ydpi="96"
   inkscape:version="0.92.2 (5c3e80d, 2017-08-06)">
  <defs
     id="defs2">
    <linearGradient
       inkscape:collect="always"
       id="linearGradient9787">
      <stop
         style="stop-color:#000080;stop-opacity:1;"
         offset="0"
         id="stop9783" />
      <stop
         style="stop-color:#000080;stop-opacity:0;"
         offset="1"
         id="stop9785" />
    </linearGradient>
    <linearGradient
       gradientTransform="matrix(0.48888234,0,0,0.48888234,121.23135,5.0862759)"
       gradientUnits="userSpaceOnUse"
       y2="71.144478"
       x2="114.07817"
       y1="89.269478"
       x1="114.65971"
       id="linearGradient76895"
       xlink:href="#linearGradient76897"
       inkscape:collect="always" />
    <linearGradient
       inkscape:collect="always"
       id="linearGradient76897">
      <stop
         style="stop-color:#cccccc;stop-opacity:1;"
         offset="0"
         id="stop76899" />
      <stop
         style="stop-color:#ccb916;stop-opacity:0"
         offset="1"
         id="stop76901" />
    </linearGradient>
    <linearGradient
       inkscape:collect="always"
       xlink:href="#linearGradient9787"
       id="linearGradient9789"
       x1="86.856148"
       y1="48.78376"
       x2="86.856148"
       y2="43.303104"
       gradientUnits="userSpaceOnUse"
       gradientTransform="matrix(1.7322602,0,0,1.7322602,-45.81834,-33.641687)" />
  </defs>
  <sodipodi:namedview
     id="base"
     pagecolor="#ffffff"
     bordercolor="#666666"
     borderopacity="1.0"
     inkscape:pageopacity="0.0"
     inkscape:pageshadow="2"
     inkscape:zoom="0.49497475"
     inkscape:cx="376.9297"
     inkscape:cy="914.68382"
     inkscape:document-units="mm"
     inkscape:current-layer="layer1"
     showgrid="false"
     inkscape:window-width="1280"
     inkscape:window-height="987"
     inkscape:window-x="1280"
     inkscape:window-y="0"
     inkscape:window-maximized="1" />
  <metadata
     id="metadata5">
    <rdf:RDF>
      <cc:Work
         rdf:about="">
        <dc:format>image/svg+xml</dc:format>
        <dc:type
           rdf:resource="http://purl.org/dc/dcmitype/StillImage" />
        <dc:title></dc:title>
      </cc:Work>
    </rdf:RDF>
  </metadata>
  <g
     inkscape:label="Camada 1"
     inkscape:groupmode="layer"
     id="layer1">
    <text
       xml:space="preserve"
       style="font-style:normal;font-variant:normal;font-weight:bold;font-stretch:normal;font-size:18.33308601px;line-height:125%;font-family:Cantarell;-inkscape-font-specification:'Cantarell, Bold';font-variant-ligatures:normal;font-variant-caps:normal;font-variant-numeric:normal;font-feature-settings:normal;text-align:start;letter-spacing:0px;word-spacing:0px;writing-mode:lr-tb;text-anchor:start;fill:#000000;fill-opacity:1;stroke:none;stroke-width:0.45832714px;stroke-linecap:butt;stroke-linejoin:miter;stroke-opacity:1"
       x="30.133026"
       y="39.535992"
       id="text817"
       inkscape:export-filename="/media/ARQUIVOS/alaelson/Dropbox/workspace/simulator/misc/logo_space-d.png"
       inkscape:export-xdpi="96"
       inkscape:export-ydpi="96"><tspan
         sodipodi:role="line"
         id="tspan815"
         x="30.133026"
         y="39.535992"
         style="font-style:normal;font-variant:normal;font-weight:bold;font-stretch:normal;font-size:18.33308601px;font-family:Cantarell;-inkscape-font-specification:'Cantarell, Bold';font-variant-ligatures:normal;font-variant-caps:normal;font-variant-numeric:normal;font-feature-settings:normal;text-align:start;writing-mode:lr-tb;text-anchor:start;stroke-width:0.45832714px">Space-D Simulat</tspan></text>
    <path
       style="fill:url(#linearGradient76895);fill-opacity:1;fill-rule:evenodd;stroke:#4d4d4d;stroke-width:0.04888823;stroke-linecap:butt;stroke-linejoin:miter;stroke-miterlimit:4;stroke-dasharray:0.1466647, 0.04888823;stroke-dashoffset:0;stroke-opacity:1"
       d="m 178.40278,44.076967 -1.92934,0.01351 -4.95771,-9.321074 10.95935,0.263822 z"
       id="path42825"
       inkscape:connector-curvature="0"
       sodipodi:nodetypes="ccccc"
       inkscape:export-filename="/media/ARQUIVOS/alaelson/Dropbox/workspace/simulator/misc/logo_space-d.png"
       inkscape:export-xdpi="96"
       inkscape:export-ydpi="96" />
    <path
       sodipodi:nodetypes="cccccccccc"
       id="path4850"
       d="m 32.404845,42.159139 c 0.0052,2.23e-4 0.01039,5.04e-4 0.01559,9.63e-4 H 177.40471 v 3.659935 H 32.408015 v -9.63e-4 h -0.0035 c -0.493556,4.14e-4 -0.893777,-0.819247 -0.893725,-1.830445 2.07e-4,-1.010824 0.400342,-1.829897 0.893725,-1.829487 z"
       style="opacity:1;fill:url(#linearGradient9789);fill-opacity:1;fill-rule:evenodd;stroke:#000000;stroke-width:0.24444115;stroke-miterlimit:4;stroke-dasharray:none;stroke-dashoffset:0;stroke-opacity:1"
       inkscape:connector-curvature="0"
       inkscape:export-filename="/media/ARQUIVOS/alaelson/Dropbox/workspace/simulator/misc/logo_space-d.png"
       inkscape:export-xdpi="96"
       inkscape:export-ydpi="96" />
    <ellipse
       ry="1.830304"
       rx="0.89336902"
       cy="43.98909"
       cx="-177.46135"
       id="ellipse4852"
       style="opacity:1;fill:#ffffff;fill-opacity:1;fill-rule:evenodd;stroke:#000000;stroke-width:0.24277262;stroke-miterlimit:4;stroke-dasharray:none;stroke-dashoffset:0;stroke-opacity:1"
       transform="scale(-1,1)"
       inkscape:export-filename="/media/ARQUIVOS/alaelson/Dropbox/workspace/simulator/misc/logo_space-d.png"
       inkscape:export-xdpi="96"
       inkscape:export-ydpi="96" />
    <g
       id="g42796"
       transform="matrix(0.18502751,0,0,0.40591139,147.90662,33.793698)"
       inkscape:export-filename="/media/ARQUIVOS/alaelson/Dropbox/workspace/simulator/misc/logo_space-d.png"
       inkscape:export-xdpi="96"
       inkscape:export-ydpi="96">
      <path
         style="opacity:1;fill:#4d4d4d;fill-opacity:0.7258065;stroke:none;stroke-width:0.16760342;stroke-miterlimit:4;stroke-dasharray:none;stroke-dashoffset:0"
         d="m 163.89842,25.11881 a 4.1687517,4.2120104 0 0 1 -4.16875,4.21201 4.1687517,4.2120104 0 0 1 -4.16875,-4.21201 4.1687517,4.2120104 0 0 1 4.16875,-4.212012 4.1687517,4.2120104 0 0 1 4.16875,4.212012 z"
         id="ellipse42592"
         inkscape:connector-curvature="0" />
      <g
         transform="matrix(0.30611752,0,0,0.30611752,109.4964,13.563487)"
         id="g42594">
        <path
           style="display:inline;opacity:1;fill:#000000;fill-opacity:1;stroke:#b3b3b3;stroke-width:0.80646926;stroke-miterlimit:4;stroke-dasharray:none;stroke-dashoffset:0"
           d="m 157.27786,31.532192 a 0.89523214,0.89523214 0 0 1 -0.89523,0.895232 0.89523214,0.89523214 0 0 1 -0.89523,-0.895232 0.89523214,0.89523214 0 0 1 0.89523,-0.895232 0.89523214,0.89523214 0 0 1 0.89523,0.895232 z"
           id="circle42596"
           inkscape:connector-curvature="0" />
        <path
           style="display:inline;opacity:1;fill:#000000;fill-opacity:1;stroke:#b3b3b3;stroke-width:0.80646926;stroke-miterlimit:4;stroke-dasharray:none;stroke-dashoffset:0"
           d="m 160.90018,28.727821 a 0.89523214,0.89523214 0 0 1 -0.89524,0.895232 0.89523214,0.89523214 0 0 1 -0.89523,-0.895232 0.89523214,0.89523214 0 0 1 0.89523,-0.895232 0.89523214,0.89523214 0 0 1 0.89524,0.895232 z"
           id="circle42598"
           inkscape:connector-curvature="0" />
        <path
           style="display:inline;opacity:1;fill:#000000;fill-opacity:1;stroke:#b3b3b3;stroke-width:0.80646926;stroke-miterlimit:4;stroke-dasharray:none;stroke-dashoffset:0"
           d="m 165.07056,27.643915 a 0.89523214,0.89523214 0 0 1 -0.89524,0.895232 0.89523214,0.89523214 0 0 1 -0.89523,-0.895232 0.89523214,0.89523214 0 0 1 0.89523,-0.895232 0.89523214,0.89523214 0 0 1 0.89524,0.895232 z"
           id="circle42600"
           inkscape:connector-curvature="0" />
        <path
           style="display:inline;opacity:1;fill:#000000;fill-opacity:1;stroke:#b3b3b3;stroke-width:0.80646926;stroke-miterlimit:4;stroke-dasharray:none;stroke-dashoffset:0"
           d="m 169.46908,28.727821 a 0.89523214,0.89523214 0 0 1 -0.89523,0.895232 0.89523214,0.89523214 0 0 1 -0.89523,-0.895232 0.89523214,0.89523214 0 0 1 0.89523,-0.895232 0.89523214,0.89523214 0 0 1 0.89523,0.895232 z"
           id="circle42602"
           inkscape:connector-curvature="0" />
        <path
           style="display:inline;opacity:1;fill:#000000;fill-opacity:1;stroke:#b3b3b3;stroke-width:0.80646926;stroke-miterlimit:4;stroke-dasharray:none;stroke-dashoffset:0"
           d="m 172.7798,31.532192 a 0.89523214,0.89523214 0 0 1 -0.89523,0.895232 0.89523214,0.89523214 0 0 1 -0.89523,-0.895232 0.89523214,0.89523214 0 0 1 0.89523,-0.895232 0.89523214,0.89523214 0 0 1 0.89523,0.895232 z"
           id="circle42604"
           inkscape:connector-curvature="0" />
        <path
           style="display:inline;opacity:1;fill:#000000;fill-opacity:1;stroke:#b3b3b3;stroke-width:0.80646926;stroke-miterlimit:4;stroke-dasharray:none;stroke-dashoffset:0"
           d="m 174.85081,35.482235 a 0.89523214,0.89523214 0 0 1 -0.89523,0.895232 0.89523214,0.89523214 0 0 1 -0.89523,-0.895232 0.89523214,0.89523214 0 0 1 0.89523,-0.895232 0.89523214,0.89523214 0 0 1 0.89523,0.895232 z"
           id="circle42606"
           inkscape:connector-curvature="0" />
        <path
           style="display:inline;opacity:1;fill:#000000;fill-opacity:1;stroke:#b3b3b3;stroke-width:0.80646926;stroke-miterlimit:4;stroke-dasharray:none;stroke-dashoffset:0"
           d="m 174.85081,39.945305 a 0.89523214,0.89523214 0 0 1 -0.89523,0.895232 0.89523214,0.89523214 0 0 1 -0.89523,-0.895232 0.89523214,0.89523214 0 0 1 0.89523,-0.895232 0.89523214,0.89523214 0 0 1 0.89523,0.895232 z"
           id="circle42608"
           inkscape:connector-curvature="0" />
        <path
           style="display:inline;opacity:1;fill:#000000;fill-opacity:1;stroke:#b3b3b3;stroke-width:0.80646926;stroke-miterlimit:4;stroke-dasharray:none;stroke-dashoffset:0"
           d="m 172.7798,43.918163 a 0.89523214,0.89523214 0 0 1 -0.89523,0.895232 0.89523214,0.89523214 0 0 1 -0.89523,-0.895232 0.89523214,0.89523214 0 0 1 0.89523,-0.895232 0.89523214,0.89523214 0 0 1 0.89523,0.895232 z"
           id="circle42610"
           inkscape:connector-curvature="0" />
        <path
           style="display:inline;opacity:1;fill:#000000;fill-opacity:1;stroke:#b3b3b3;stroke-width:0.80646926;stroke-miterlimit:4;stroke-dasharray:none;stroke-dashoffset:0"
           d="m 169.46908,46.846066 a 0.89523214,0.89523214 0 0 1 -0.89523,0.895232 0.89523214,0.89523214 0 0 1 -0.89523,-0.895232 0.89523214,0.89523214 0 0 1 0.89523,-0.895233 0.89523214,0.89523214 0 0 1 0.89523,0.895233 z"
           id="circle42612"
           inkscape:connector-curvature="0" />
        <path
           style="display:inline;opacity:1;fill:#000000;fill-opacity:1;stroke:#b3b3b3;stroke-width:0.80646926;stroke-miterlimit:4;stroke-dasharray:none;stroke-dashoffset:0"
           d="m 165.07056,47.85207 a 0.89523214,0.89523214 0 0 1 -0.89524,0.895232 0.89523214,0.89523214 0 0 1 -0.89523,-0.895232 0.89523214,0.89523214 0 0 1 0.89523,-0.895232 0.89523214,0.89523214 0 0 1 0.89524,0.895232 z"
           id="circle42614"
           inkscape:connector-curvature="0" />
        <path
           style="display:inline;opacity:1;fill:#000000;fill-opacity:1;stroke:#b3b3b3;stroke-width:0.80646926;stroke-miterlimit:4;stroke-dasharray:none;stroke-dashoffset:0"
           d="m 160.90018,46.846066 a 0.89523214,0.89523214 0 0 1 -0.89524,0.895232 0.89523214,0.89523214 0 0 1 -0.89523,-0.895232 0.89523214,0.89523214 0 0 1 0.89523,-0.895233 0.89523214,0.89523214 0 0 1 0.89524,0.895233 z"
           id="circle42616"
           inkscape:connector-curvature="0" />
        <path
           style="display:inline;opacity:1;fill:#000000;fill-opacity:1;stroke:#b3b3b3;stroke-width:0.80646926;stroke-miterlimit:4;stroke-dasharray:none;stroke-dashoffset:0"
           d="m 157.27786,43.918163 a 0.89523214,0.89523214 0 0 1 -0.89523,0.895232 0.89523214,0.89523214 0 0 1 -0.89523,-0.895232 0.89523214,0.89523214 0 0 1 0.89523,-0.895232 0.89523214,0.89523214 0 0 1 0.89523,0.895232 z"
           id="circle42618"
           inkscape:connector-curvature="0" />
        <path
           style="display:inline;opacity:1;fill:#000000;fill-opacity:1;stroke:#b3b3b3;stroke-width:0.80646926;stroke-miterlimit:4;stroke-dasharray:none;stroke-dashoffset:0"
           d="m 155.13562,39.945305 a 0.89523214,0.89523214 0 0 1 -0.89523,0.895232 0.89523214,0.89523214 0 0 1 -0.89524,-0.895232 0.89523214,0.89523214 0 0 1 0.89524,-0.895232 0.89523214,0.89523214 0 0 1 0.89523,0.895232 z"
           id="circle42620"
           inkscape:connector-curvature="0" />
        <path
           style="display:inline;opacity:1;fill:#000000;fill-opacity:1;stroke:#b3b3b3;stroke-width:0.80646926;stroke-miterlimit:4;stroke-dasharray:none;stroke-dashoffset:0"
           d="m 155.13562,35.482235 a 0.89523214,0.89523214 0 0 1 -0.89523,0.895232 0.89523214,0.89523214 0 0 1 -0.89524,-0.895232 0.89523214,0.89523214 0 0 1 0.89524,-0.895232 0.89523214,0.89523214 0 0 1 0.89523,0.895232 z"
           id="circle42622"
           inkscape:connector-curvature="0" />
      </g>
      <g
         transform="matrix(0.30611752,0,0,0.30611752,99.660043,13.438044)"
         id="g42624">
        <path
           transform="rotate(-8.8224356)"
           style="display:inline;opacity:1;fill:#000000;fill-opacity:1;stroke:#b3b3b3;stroke-width:0.80646926;stroke-miterlimit:4;stroke-dasharray:none;stroke-dashoffset:0"
           d="m 191.91629,63.40543 a 0.89523214,0.89523214 0 0 1 -0.89523,0.895232 0.89523214,0.89523214 0 0 1 -0.89524,-0.895232 0.89523214,0.89523214 0 0 1 0.89524,-0.895232 0.89523214,0.89523214 0 0 1 0.89523,0.895232 z"
           id="circle42626"
           inkscape:connector-curvature="0" />
        <path
           transform="rotate(-8.8224356)"
           style="display:inline;opacity:1;fill:#000000;fill-opacity:1;stroke:#b3b3b3;stroke-width:0.80646926;stroke-miterlimit:4;stroke-dasharray:none;stroke-dashoffset:0"
           d="m 193.95436,67.371414 a 0.89523214,0.89523214 0 0 1 -0.89523,0.895232 0.89523214,0.89523214 0 0 1 -0.89523,-0.895232 0.89523214,0.89523214 0 0 1 0.89523,-0.895232 0.89523214,0.89523214 0 0 1 0.89523,0.895232 z"
           id="circle42628"
           inkscape:connector-curvature="0" />
        <path
           transform="rotate(-8.8224356)"
           style="display:inline;opacity:1;fill:#000000;fill-opacity:1;stroke:#b3b3b3;stroke-width:0.80646926;stroke-miterlimit:4;stroke-dasharray:none;stroke-dashoffset:0"
           d="m 192.02646,71.557724 a 0.89523214,0.89523214 0 0 1 -0.89523,0.895232 0.89523214,0.89523214 0 0 1 -0.89524,-0.895232 0.89523214,0.89523214 0 0 1 0.89524,-0.895232 0.89523214,0.89523214 0 0 1 0.89523,0.895232 z"
           id="circle42630"
           inkscape:connector-curvature="0" />
        <path
           transform="rotate(-8.8224356)"
           style="display:inline;opacity:1;fill:#000000;fill-opacity:1;stroke:#b3b3b3;stroke-width:0.80646926;stroke-miterlimit:4;stroke-dasharray:none;stroke-dashoffset:0"
           d="m 187.56473,72.494133 a 0.89523214,0.89523214 0 0 1 -0.89524,0.895232 0.89523214,0.89523214 0 0 1 -0.89523,-0.895232 0.89523214,0.89523214 0 0 1 0.89523,-0.895232 0.89523214,0.89523214 0 0 1 0.89524,0.895232 z"
           id="circle42632"
           inkscape:connector-curvature="0" />
        <path
           transform="rotate(-8.8224356)"
           style="display:inline;opacity:1;fill:#000000;fill-opacity:1;stroke:#b3b3b3;stroke-width:0.80646926;stroke-miterlimit:4;stroke-dasharray:none;stroke-dashoffset:0"
           d="m 184.25975,69.464561 a 0.89523214,0.89523214 0 0 1 -0.89523,0.895233 0.89523214,0.89523214 0 0 1 -0.89523,-0.895233 0.89523214,0.89523214 0 0 1 0.89523,-0.895232 0.89523214,0.89523214 0 0 1 0.89523,0.895232 z"
           id="circle42634"
           inkscape:connector-curvature="0" />
        <path
           transform="rotate(-8.8224356)"
           style="display:inline;opacity:1;fill:#000000;fill-opacity:1;stroke:#b3b3b3;stroke-width:0.80646926;stroke-miterlimit:4;stroke-dasharray:none;stroke-dashoffset:0"
           d="m 184.425,65.168091 a 0.89523214,0.89523214 0 0 1 -0.89523,0.895232 0.89523214,0.89523214 0 0 1 -0.89523,-0.895232 0.89523214,0.89523214 0 0 1 0.89523,-0.895232 0.89523214,0.89523214 0 0 1 0.89523,0.895232 z"
           id="circle42636"
           inkscape:connector-curvature="0" />
        <path
           transform="rotate(-8.8224356)"
           style="display:inline;opacity:1;fill:#000000;fill-opacity:1;stroke:#b3b3b3;stroke-width:0.80646926;stroke-miterlimit:4;stroke-dasharray:none;stroke-dashoffset:0"
           d="m 187.61981,62.68935 a 0.89523214,0.89523214 0 0 1 -0.89523,0.895232 0.89523214,0.89523214 0 0 1 -0.89523,-0.895232 0.89523214,0.89523214 0 0 1 0.89523,-0.895232 0.89523214,0.89523214 0 0 1 0.89523,0.895232 z"
           id="circle42638"
           inkscape:connector-curvature="0" />
      </g>
      <path
         style="display:inline;opacity:1;fill:#000000;fill-opacity:1;stroke:#b3b3b3;stroke-width:0.24687438;stroke-miterlimit:4;stroke-dasharray:none;stroke-dashoffset:0"
         d="m 160.00048,25.076775 a 0.27404624,0.27404624 0 0 1 -0.22878,0.312837 0.27404624,0.27404624 0 0 1 -0.31283,-0.228775 0.27404624,0.27404624 0 0 1 0.22877,-0.312833 0.27404624,0.27404624 0 0 1 0.31284,0.228771 z"
         id="circle42640"
         inkscape:connector-curvature="0" />
    </g>
    <g
       id="g76928"
       transform="matrix(1.0357332,0,0,1.0357332,58.742074,-38.660869)"
       inkscape:export-filename="/media/ARQUIVOS/alaelson/Dropbox/workspace/simulator/misc/logo_space-d.png"
       inkscape:export-xdpi="96"
       inkscape:export-ydpi="96">
      <path
         style="opacity:1;fill:#666666;fill-opacity:1;stroke:#000000;stroke-width:0.2111484;stroke-miterlimit:4;stroke-dasharray:none;stroke-dashoffset:0"
         d="m 119.40448,71.031137 c 0,2.930605 -2.35132,5.30633 -5.25183,5.306331 -2.90051,10e-7 -5.25184,-2.375724 -5.25184,-5.306331 0,-2.930607 2.35133,-5.306333 5.25184,-5.306331 2.90051,0 5.25183,2.375725 5.25183,5.306331 z"
         id="ellipse42049"
         inkscape:connector-curvature="0"
         sodipodi:nodetypes="zsssz" />
      <g
         id="g42051"
         transform="matrix(0.3856498,0,0,0.3856498,50.868292,56.473631)">
        <path
           style="display:inline;opacity:1;fill:#000000;fill-opacity:1;stroke:#b3b3b3;stroke-width:0.80646926;stroke-miterlimit:4;stroke-dasharray:none;stroke-dashoffset:0"
           d="m 157.27786,31.532192 a 0.89523214,0.89523214 0 0 1 -0.89523,0.895232 0.89523214,0.89523214 0 0 1 -0.89523,-0.895232 0.89523214,0.89523214 0 0 1 0.89523,-0.895232 0.89523214,0.89523214 0 0 1 0.89523,0.895232 z"
           id="circle42053"
           inkscape:connector-curvature="0" />
        <path
           style="display:inline;opacity:1;fill:#000000;fill-opacity:1;stroke:#b3b3b3;stroke-width:0.80646926;stroke-miterlimit:4;stroke-dasharray:none;stroke-dashoffset:0"
           d="m 160.90018,28.727821 a 0.89523214,0.89523214 0 0 1 -0.89524,0.895232 0.89523214,0.89523214 0 0 1 -0.89523,-0.895232 0.89523214,0.89523214 0 0 1 0.89523,-0.895232 0.89523214,0.89523214 0 0 1 0.89524,0.895232 z"
           id="circle42055"
           inkscape:connector-curvature="0" />
        <path
           style="display:inline;opacity:1;fill:#000000;fill-opacity:1;stroke:#b3b3b3;stroke-width:0.80646926;stroke-miterlimit:4;stroke-dasharray:none;stroke-dashoffset:0"
           d="m 165.07056,27.643915 a 0.89523214,0.89523214 0 0 1 -0.89524,0.895232 0.89523214,0.89523214 0 0 1 -0.89523,-0.895232 0.89523214,0.89523214 0 0 1 0.89523,-0.895232 0.89523214,0.89523214 0 0 1 0.89524,0.895232 z"
           id="circle42057"
           inkscape:connector-curvature="0" />
        <path
           style="display:inline;opacity:1;fill:#000000;fill-opacity:1;stroke:#b3b3b3;stroke-width:0.80646926;stroke-miterlimit:4;stroke-dasharray:none;stroke-dashoffset:0"
           d="m 169.46908,28.727821 a 0.89523214,0.89523214 0 0 1 -0.89523,0.895232 0.89523214,0.89523214 0 0 1 -0.89523,-0.895232 0.89523214,0.89523214 0 0 1 0.89523,-0.895232 0.89523214,0.89523214 0 0 1 0.89523,0.895232 z"
           id="circle42059"
           inkscape:connector-curvature="0" />
        <path
           style="display:inline;opacity:1;fill:#000000;fill-opacity:1;stroke:#b3b3b3;stroke-width:0.80646926;stroke-miterlimit:4;stroke-dasharray:none;stroke-dashoffset:0"
           d="m 172.7798,31.532192 a 0.89523214,0.89523214 0 0 1 -0.89523,0.895232 0.89523214,0.89523214 0 0 1 -0.89523,-0.895232 0.89523214,0.89523214 0 0 1 0.89523,-0.895232 0.89523214,0.89523214 0 0 1 0.89523,0.895232 z"
           id="circle42061"
           inkscape:connector-curvature="0" />
        <path
           style="display:inline;opacity:1;fill:#000000;fill-opacity:1;stroke:#b3b3b3;stroke-width:0.80646926;stroke-miterlimit:4;stroke-dasharray:none;stroke-dashoffset:0"
           d="m 174.85081,35.482235 a 0.89523214,0.89523214 0 0 1 -0.89523,0.895232 0.89523214,0.89523214 0 0 1 -0.89523,-0.895232 0.89523214,0.89523214 0 0 1 0.89523,-0.895232 0.89523214,0.89523214 0 0 1 0.89523,0.895232 z"
           id="circle42063"
           inkscape:connector-curvature="0" />
        <path
           style="display:inline;opacity:1;fill:#000000;fill-opacity:1;stroke:#b3b3b3;stroke-width:0.80646926;stroke-miterlimit:4;stroke-dasharray:none;stroke-dashoffset:0"
           d="m 174.85081,39.945305 a 0.89523214,0.89523214 0 0 1 -0.89523,0.895232 0.89523214,0.89523214 0 0 1 -0.89523,-0.895232 0.89523214,0.89523214 0 0 1 0.89523,-0.895232 0.89523214,0.89523214 0 0 1 0.89523,0.895232 z"
           id="circle42065"
           inkscape:connector-curvature="0" />
        <path
           style="display:inline;opacity:1;fill:#000000;fill-opacity:1;stroke:#b3b3b3;stroke-width:0.80646926;stroke-miterlimit:4;stroke-dasharray:none;stroke-dashoffset:0"
           d="m 172.7798,43.918163 a 0.89523214,0.89523214 0 0 1 -0.89523,0.895232 0.89523214,0.89523214 0 0 1 -0.89523,-0.895232 0.89523214,0.89523214 0 0 1 0.89523,-0.895232 0.89523214,0.89523214 0 0 1 0.89523,0.895232 z"
           id="circle42067"
           inkscape:connector-curvature="0" />
        <path
           style="display:inline;opacity:1;fill:#000000;fill-opacity:1;stroke:#b3b3b3;stroke-width:0.80646926;stroke-miterlimit:4;stroke-dasharray:none;stroke-dashoffset:0"
           d="m 169.46908,46.846066 a 0.89523214,0.89523214 0 0 1 -0.89523,0.895232 0.89523214,0.89523214 0 0 1 -0.89523,-0.895232 0.89523214,0.89523214 0 0 1 0.89523,-0.895233 0.89523214,0.89523214 0 0 1 0.89523,0.895233 z"
           id="circle42069"
           inkscape:connector-curvature="0" />
        <path
           style="display:inline;opacity:1;fill:#000000;fill-opacity:1;stroke:#b3b3b3;stroke-width:0.80646926;stroke-miterlimit:4;stroke-dasharray:none;stroke-dashoffset:0"
           d="m 165.07056,47.85207 a 0.89523214,0.89523214 0 0 1 -0.89524,0.895232 0.89523214,0.89523214 0 0 1 -0.89523,-0.895232 0.89523214,0.89523214 0 0 1 0.89523,-0.895232 0.89523214,0.89523214 0 0 1 0.89524,0.895232 z"
           id="circle42071"
           inkscape:connector-curvature="0" />
        <path
           style="display:inline;opacity:1;fill:#000000;fill-opacity:1;stroke:#b3b3b3;stroke-width:0.80646926;stroke-miterlimit:4;stroke-dasharray:none;stroke-dashoffset:0"
           d="m 160.90018,46.846066 a 0.89523214,0.89523214 0 0 1 -0.89524,0.895232 0.89523214,0.89523214 0 0 1 -0.89523,-0.895232 0.89523214,0.89523214 0 0 1 0.89523,-0.895233 0.89523214,0.89523214 0 0 1 0.89524,0.895233 z"
           id="circle42073"
           inkscape:connector-curvature="0" />
        <path
           style="display:inline;opacity:1;fill:#000000;fill-opacity:1;stroke:#b3b3b3;stroke-width:0.80646926;stroke-miterlimit:4;stroke-dasharray:none;stroke-dashoffset:0"
           d="m 157.27786,43.918163 a 0.89523214,0.89523214 0 0 1 -0.89523,0.895232 0.89523214,0.89523214 0 0 1 -0.89523,-0.895232 0.89523214,0.89523214 0 0 1 0.89523,-0.895232 0.89523214,0.89523214 0 0 1 0.89523,0.895232 z"
           id="circle42075"
           inkscape:connector-curvature="0" />
        <path
           style="display:inline;opacity:1;fill:#000000;fill-opacity:1;stroke:#b3b3b3;stroke-width:0.80646926;stroke-miterlimit:4;stroke-dasharray:none;stroke-dashoffset:0"
           d="m 155.13562,39.945305 a 0.89523214,0.89523214 0 0 1 -0.89523,0.895232 0.89523214,0.89523214 0 0 1 -0.89524,-0.895232 0.89523214,0.89523214 0 0 1 0.89524,-0.895232 0.89523214,0.89523214 0 0 1 0.89523,0.895232 z"
           id="circle42077"
           inkscape:connector-curvature="0" />
        <path
           style="display:inline;opacity:1;fill:#000000;fill-opacity:1;stroke:#b3b3b3;stroke-width:0.80646926;stroke-miterlimit:4;stroke-dasharray:none;stroke-dashoffset:0"
           d="m 155.13562,35.482235 a 0.89523214,0.89523214 0 0 1 -0.89523,0.895232 0.89523214,0.89523214 0 0 1 -0.89524,-0.895232 0.89523214,0.89523214 0 0 1 0.89524,-0.895232 0.89523214,0.89523214 0 0 1 0.89523,0.895232 z"
           id="circle42079"
           inkscape:connector-curvature="0" />
      </g>
      <g
         id="g42081"
         transform="matrix(0.3856498,0,0,0.3856498,38.476355,56.315597)">
        <path
           transform="rotate(-8.8224356)"
           style="display:inline;opacity:1;fill:#000000;fill-opacity:1;stroke:#b3b3b3;stroke-width:0.80646926;stroke-miterlimit:4;stroke-dasharray:none;stroke-dashoffset:0"
           d="m 191.91629,63.40543 a 0.89523214,0.89523214 0 0 1 -0.89523,0.895232 0.89523214,0.89523214 0 0 1 -0.89524,-0.895232 0.89523214,0.89523214 0 0 1 0.89524,-0.895232 0.89523214,0.89523214 0 0 1 0.89523,0.895232 z"
           id="circle42083"
           inkscape:connector-curvature="0" />
        <path
           transform="rotate(-8.8224356)"
           style="display:inline;opacity:1;fill:#000000;fill-opacity:1;stroke:#b3b3b3;stroke-width:0.80646926;stroke-miterlimit:4;stroke-dasharray:none;stroke-dashoffset:0"
           d="m 193.95436,67.371414 a 0.89523214,0.89523214 0 0 1 -0.89523,0.895232 0.89523214,0.89523214 0 0 1 -0.89523,-0.895232 0.89523214,0.89523214 0 0 1 0.89523,-0.895232 0.89523214,0.89523214 0 0 1 0.89523,0.895232 z"
           id="circle42085"
           inkscape:connector-curvature="0" />
        <path
           transform="rotate(-8.8224356)"
           style="display:inline;opacity:1;fill:#000000;fill-opacity:1;stroke:#b3b3b3;stroke-width:0.80646926;stroke-miterlimit:4;stroke-dasharray:none;stroke-dashoffset:0"
           d="m 192.02646,71.557724 a 0.89523214,0.89523214 0 0 1 -0.89523,0.895232 0.89523214,0.89523214 0 0 1 -0.89524,-0.895232 0.89523214,0.89523214 0 0 1 0.89524,-0.895232 0.89523214,0.89523214 0 0 1 0.89523,0.895232 z"
           id="circle42087"
           inkscape:connector-curvature="0" />
        <path
           transform="rotate(-8.8224356)"
           style="display:inline;opacity:1;fill:#000000;fill-opacity:1;stroke:#b3b3b3;stroke-width:0.80646926;stroke-miterlimit:4;stroke-dasharray:none;stroke-dashoffset:0"
           d="m 187.56473,72.494133 a 0.89523214,0.89523214 0 0 1 -0.89524,0.895232 0.89523214,0.89523214 0 0 1 -0.89523,-0.895232 0.89523214,0.89523214 0 0 1 0.89523,-0.895232 0.89523214,0.89523214 0 0 1 0.89524,0.895232 z"
           id="circle42089"
           inkscape:connector-curvature="0" />
        <path
           transform="rotate(-8.8224356)"
           style="display:inline;opacity:1;fill:#000000;fill-opacity:1;stroke:#b3b3b3;stroke-width:0.80646926;stroke-miterlimit:4;stroke-dasharray:none;stroke-dashoffset:0"
           d="m 184.25975,69.464561 a 0.89523214,0.89523214 0 0 1 -0.89523,0.895233 0.89523214,0.89523214 0 0 1 -0.89523,-0.895233 0.89523214,0.89523214 0 0 1 0.89523,-0.895232 0.89523214,0.89523214 0 0 1 0.89523,0.895232 z"
           id="circle42091"
           inkscape:connector-curvature="0" />
        <path
           transform="rotate(-8.8224356)"
           style="display:inline;opacity:1;fill:#000000;fill-opacity:1;stroke:#b3b3b3;stroke-width:0.80646926;stroke-miterlimit:4;stroke-dasharray:none;stroke-dashoffset:0"
           d="m 184.425,65.168091 a 0.89523214,0.89523214 0 0 1 -0.89523,0.895232 0.89523214,0.89523214 0 0 1 -0.89523,-0.895232 0.89523214,0.89523214 0 0 1 0.89523,-0.895232 0.89523214,0.89523214 0 0 1 0.89523,0.895232 z"
           id="circle42093"
           inkscape:connector-curvature="0" />
        <path
           transform="rotate(-8.8224356)"
           style="display:inline;opacity:1;fill:#000000;fill-opacity:1;stroke:#b3b3b3;stroke-width:0.80646926;stroke-miterlimit:4;stroke-dasharray:none;stroke-dashoffset:0"
           d="m 187.61981,62.68935 a 0.89523214,0.89523214 0 0 1 -0.89523,0.895232 0.89523214,0.89523214 0 0 1 -0.89523,-0.895232 0.89523214,0.89523214 0 0 1 0.89523,-0.895232 0.89523214,0.89523214 0 0 1 0.89523,0.895232 z"
           id="circle42095"
           inkscape:connector-curvature="0" />
      </g>
      <path
         style="display:inline;opacity:1;fill:#000000;fill-opacity:1;stroke:#b3b3b3;stroke-width:0.31101471;stroke-miterlimit:4;stroke-dasharray:none;stroke-dashoffset:0"
         d="m 114.49381,70.978184 a 0.3452461,0.3452461 0 0 1 -0.28821,0.394113 0.3452461,0.3452461 0 0 1 -0.39411,-0.28821 0.3452461,0.3452461 0 0 1 0.28821,-0.394113 0.3452461,0.3452461 0 0 1 0.39411,0.28821 z"
         id="circle42097"
         inkscape:connector-curvature="0" />
    </g>
    <text
       id="text9743"
       y="39.535992"
       x="182.95482"
       style="font-style:normal;font-variant:normal;font-weight:bold;font-stretch:normal;font-size:18.33308601px;line-height:125%;font-family:Cantarell;-inkscape-font-specification:'Cantarell, Bold';font-variant-ligatures:normal;font-variant-caps:normal;font-variant-numeric:normal;font-feature-settings:normal;text-align:start;letter-spacing:0px;word-spacing:0px;writing-mode:lr-tb;text-anchor:start;fill:#000000;fill-opacity:1;stroke:none;stroke-width:0.45832714px;stroke-linecap:butt;stroke-linejoin:miter;stroke-opacity:1"
       xml:space="preserve"
       inkscape:export-filename="/media/ARQUIVOS/alaelson/Dropbox/workspace/simulator/misc/logo_space-d.png"
       inkscape:export-xdpi="96"
       inkscape:export-ydpi="96"><tspan
         style="font-style:normal;font-variant:normal;font-weight:bold;font-stretch:normal;font-size:18.33308601px;font-family:Cantarell;-inkscape-font-specification:'Cantarell, Bold';font-variant-ligatures:normal;font-variant-caps:normal;font-variant-numeric:normal;font-feature-settings:normal;text-align:start;writing-mode:lr-tb;text-anchor:start;stroke-width:0.45832714px"
         y="39.535992"
         x="182.95482"
         id="tspan9741"
         sodipodi:role="line">r</tspan></text>
    <text
       id="text9793"
       y="60.619049"
       x="30.133026"
       style="font-style:normal;font-variant:normal;font-weight:bold;font-stretch:normal;font-size:9.77764606px;line-height:125%;font-family:Cantarell;-inkscape-font-specification:'Cantarell, Bold';font-variant-ligatures:normal;font-variant-caps:normal;font-variant-numeric:normal;font-feature-settings:normal;text-align:start;letter-spacing:0px;word-spacing:0px;writing-mode:lr-tb;text-anchor:start;fill:#000000;fill-opacity:1;stroke:none;stroke-width:0.45832714px;stroke-linecap:butt;stroke-linejoin:miter;stroke-opacity:1"
       xml:space="preserve"
       inkscape:export-filename="/media/ARQUIVOS/alaelson/Dropbox/workspace/simulator/misc/logo_space-d.png"
       inkscape:export-xdpi="96"
       inkscape:export-ydpi="96"><tspan
         style="font-style:normal;font-variant:normal;font-weight:bold;font-stretch:normal;font-size:9.77764606px;font-family:Cantarell;-inkscape-font-specification:'Cantarell, Bold';font-variant-ligatures:normal;font-variant-caps:normal;font-variant-numeric:normal;font-feature-settings:normal;text-align:start;writing-mode:lr-tb;text-anchor:start;stroke-width:0.45832714px"
         y="68.978935"
         x="30.133026"
         id="tspan9791"
         sodipodi:role="line" /></text>
  </g>
</svg>
